<svg width="456" height="151" viewBox="0 0 456 151" fill="none" xmlns="http://www.w3.org/2000/svg">
<path d="M33.3613 149.471H28.076L11.052 128.121L7.48267 131.143L4.256 149.471H0L8.37467 102.107H12.6307L8.37467 126.269L37.1373 102.107H42.492L14.2787 125.788L33.3613 149.471Z" fill="#244170"/>
<path d="M52.4413 104.852C52.4413 106.773 50.9307 108.215 49.0773 108.215C47.636 108.215 46.6067 107.117 46.6067 105.813C46.6067 103.891 48.1853 102.449 50.0387 102.449C51.48 102.449 52.4413 103.547 52.4413 104.852ZM39.6053 149.471L45.9893 113.157H50.2453L43.86 149.471H39.6053Z" fill="#244170"/>
<path d="M87.7233 121.739C87.7233 123.867 87.586 125.239 86.8993 129.152L83.1926 149.471H78.9366L82.506 129.632C83.0553 126.612 83.33 124.621 83.33 122.905C83.33 118.649 81.0646 115.629 75.4353 115.697C69.258 115.767 63.286 120.091 61.2953 131.348V131.417L58.138 149.471H53.882L60.2646 113.157H64.522L63.286 120.091L65.9633 116.109C69.3953 113.227 72.8273 112.197 76.8086 112.197C84.0166 112.197 87.7233 115.904 87.7233 121.739Z" fill="#244170"/>
<path d="M98.36 129.221H121.561C121.699 128.054 121.768 127.025 121.768 126.063C121.768 118.855 117.856 115.63 112.295 115.63C104.195 115.63 100.008 122.494 98.36 129.221ZM97.7427 132.583C97.6054 133.683 97.536 134.781 97.536 135.742C97.536 143.773 101.861 147.069 107.009 147.069C112.089 147.069 117.032 143.979 119.435 138.007H123.828C120.532 146.657 113.463 150.431 106.185 150.431C98.36 150.431 92.9374 145.421 92.9374 135.879C92.9374 125.651 99.0467 112.197 112.981 112.197C121.631 112.197 126.092 117.963 126.092 125.858C126.092 128.054 125.749 130.731 125.2 132.583H97.7427Z" fill="#244170"/>
<path d="M157.255 123.317H152.861C152.449 118.101 149.773 115.629 145.105 115.629C139.476 115.629 136.867 118.993 136.867 122.494C136.867 126.269 139.751 128.122 144.075 129.357C151.145 131.417 154.921 134.164 154.921 139.929C154.921 146.382 149.499 150.706 141.26 150.706C132.268 150.706 128.081 145.764 127.875 139.174H132.268C132.68 145.146 136.319 147.344 141.741 147.344C146.752 147.344 150.321 144.528 150.321 140.273C150.321 136.497 147.851 134.574 141.948 132.858C136.729 131.348 132.2 129.014 132.2 122.905C132.2 117.138 136.936 112.197 145.448 112.197C153.204 112.197 157.049 116.59 157.255 123.317Z" fill="#244170"/>
<path d="M173.658 104.852C173.658 106.773 172.147 108.215 170.294 108.215C168.853 108.215 167.823 107.117 167.823 105.813C167.823 103.891 169.402 102.449 171.255 102.449C172.697 102.449 173.658 103.547 173.658 104.852ZM160.822 149.471L167.205 113.157H171.462L165.077 149.471H160.822Z" fill="#244170"/>
<path d="M206.126 128.191C206.126 120.777 202.144 115.629 195.074 115.629C184.846 115.629 179.766 125.925 179.766 134.439C179.766 141.851 183.747 147.068 190.818 147.068C200.978 147.068 206.126 136.772 206.126 128.191ZM210.794 128.121C210.794 137.732 204.684 150.432 190.268 150.432C179.698 150.432 175.098 143.087 175.098 134.505C175.098 124.964 181.208 112.197 195.623 112.197C206.194 112.197 210.794 119.609 210.794 128.121Z" fill="#244170"/>
<path d="M273.05 120.915C273.05 122.836 272.776 124.691 272.226 127.711L268.382 149.471H258.909L262.273 130.456C262.685 127.916 263.028 125.72 263.028 123.867C263.028 120.503 261.312 118.649 258.085 118.649C254.242 118.649 250.466 123.317 249.161 130.525L249.093 130.731L245.798 149.471H236.394L239.689 130.456C240.169 127.779 240.513 125.652 240.513 123.867C240.513 120.503 238.728 118.649 235.364 118.649C231.452 118.649 227.882 123.248 226.578 130.731L223.282 149.471H213.809L220.262 112.952H229.666L228.774 118.168L232.137 114.119C234.54 112.677 237.08 111.992 240.374 111.992C246.141 111.992 249.368 114.805 250.19 118.649L253.966 114.393C256.506 112.54 259.252 111.992 262.548 111.992C269.824 111.992 273.05 115.972 273.05 120.915Z" fill="#244170"/>
<path d="M287.872 127.504H304.141C304.209 126.887 304.209 126.407 304.209 125.924C304.209 121.395 301.806 118.648 297.482 118.648C292.54 118.648 289.452 122.424 287.872 127.504ZM286.774 135.535C286.774 141.439 289.588 143.772 293.501 143.772C297.552 143.772 300.914 141.508 302.22 137.595H311.692C308.74 146.107 301.464 150.431 292.609 150.431C283.892 150.431 277.096 145.902 277.096 135.604C277.096 123.042 284.92 111.991 298.444 111.991C308.672 111.991 313.82 118.307 313.82 126.407C313.82 128.74 313.34 131.486 312.653 133.683H286.844L286.774 135.535Z" fill="#244170"/>
<path d="M329.536 136.36C329.192 138.419 329.056 139.312 329.056 140.34C329.056 143.224 331.114 143.911 335.576 143.292L334.478 149.54C332.349 150.02 330.085 150.225 327.75 150.225C321.71 150.225 319.102 148.235 319.102 143.98C319.102 142.607 319.308 140.684 319.925 137.457L323.152 119.473H317.934L319.033 113.227H324.249L325.829 104.233H335.232L333.654 113.227H340.861L339.764 119.473H332.556L329.536 136.36Z" fill="#244170"/>
<path d="M368.661 112.334L367.289 119.954C360.973 119.335 355.206 121.739 353.216 132.722L350.264 149.471H340.792L347.176 113.089H356.648L355.481 119.749L359.394 114.53C361.385 112.883 363.993 112.059 366.053 112.059C367.081 112.059 367.837 112.129 368.661 112.334Z" fill="#244170"/>
<path d="M384.653 103.548C384.653 107.254 382.457 109.382 378.886 109.382C375.797 109.382 374.013 107.736 374.013 105.264C374.013 101.489 376.278 99.3596 379.848 99.3596C382.937 99.3596 384.653 101.076 384.653 103.548ZM366.461 149.47L372.982 112.953H382.388L375.934 149.47H366.461Z" fill="#244170"/>
<path d="M421.788 126.269H412.452C412.316 121.189 409.982 118.788 405.863 118.788C399.411 118.788 395.154 126.064 395.154 135.33C395.154 141.028 397.9 143.773 401.538 143.773C405.726 143.773 408.952 141.44 410.599 136.841H420.072C416.708 145.833 410.462 150.432 400.647 150.432C391.654 150.432 385.064 145.694 385.064 135.33C385.064 122.768 393.371 112.129 406.892 112.129C417.19 112.129 421.788 117.964 421.788 126.269Z" fill="#244170"/>
<path d="M455.146 123.661H445.742C445.398 120.298 443.821 118.374 440.869 118.374C437.506 118.374 435.996 120.229 435.996 122.425C435.996 125.239 437.917 126.474 442.997 128.122C450.136 130.387 453.43 133.477 453.43 139.174C453.43 146.313 447.116 150.843 437.506 150.843C427.345 150.843 422.336 145.833 421.992 138.762H431.464C431.877 143.018 434.554 144.597 437.986 144.597C441.144 144.597 443.477 142.95 443.477 140.067C443.477 137.458 441.624 135.947 435.789 133.958C429.953 132.034 426.042 129.701 426.042 123.591C426.042 117.413 431.189 112.129 441.212 112.129C450.822 112.129 454.872 117.002 455.146 123.661Z" fill="#244170"/>
<path d="M188.372 85.4491H197.386V43.0998L188.372 52.1144V85.4491Z" fill="#43C8F2"/>
<path d="M209.713 85.4491H218.728V58.6264L209.713 49.6131V85.4491Z" fill="#0156A6"/>
<path d="M231.055 85.4491H240.07V44.4064L231.055 53.4211V85.4491Z" fill="#111E6C"/>
<path d="M250.773 5.74403L222.289 34.228L200.293 12.232L176.11 36.416L168.835 54.0907L200.293 22.6334L222.289 44.628L256.933 9.98403L250.773 5.74403Z" fill="#0156A6"/>
<path d="M230.066 14.0026C230.066 18.3079 226.575 21.7999 222.267 21.7999C217.962 21.7999 214.471 18.3079 214.471 14.0026C214.471 9.69593 217.962 6.20526 222.267 6.20526C226.575 6.20526 230.066 9.69593 230.066 14.0026Z" fill="#0156A6"/>
<path d="M167.03 73.4563V76.4336V85.4496H176.045V73.4563V64.4416L167.03 73.4563Z" fill="#87D9F5"/>
<path d="M252.398 32.0793V47.7913V85.4486H261.412V76.4339V47.7913V23.0646L252.398 32.0793Z" fill="#0C154A"/>
<path d="M218.728 52.0084L209.713 42.9937L200.293 33.5737L197.387 36.4804L188.372 45.495L176.044 57.823L163.783 70.0844L154.711 85.775L158.679 81.8084L167.031 73.4564L176.044 64.4417L188.372 52.1137L197.387 43.099L200.293 40.1924L209.713 49.6124L218.728 58.627V55.487V52.0084Z" fill="#0156A6"/>
<path d="M261.365 -2.67029e-05L242.834 7.99997L253.366 18.5306L261.365 -2.67029e-05Z" fill="#0156A6"/>
</svg>
