<svg width="300" height="213" viewBox="0 0 300 213" fill="none" xmlns="http://www.w3.org/2000/svg">
<g clip-path="url(#clip0)">
<path opacity="0.1" d="M99.7 212.4C114.3 212.4 126.2 210.5 126.2 208.2C126.2 205.9 114.4 204 99.7 204C85.1 204 73.2 205.9 73.2 208.2C73.3 210.5 85.1 212.4 99.7 212.4Z" fill="#1F3C73"/>
<path opacity="0.1" d="M233.5 212.5C251.7 212.5 266.5 210.6 266.5 208.3C266.5 206 251.7 204.1 233.5 204.1C215.3 204.1 200.5 206 200.5 208.3C200.5 210.6 215.3 212.5 233.5 212.5Z" fill="#1F3C73"/>
<path opacity="0.1" d="M3.8 91.8H31.4V129.4H5.8C5.7 129.8 5.7 130.2 5.6 130.6H31.3V160.9H31.2C30.5 160.6 29.8 160.3 29 160L28.5 159.8C27.8 159.5 27.1 159.1 26.3 158.7C26 158.6 25.8 158.4 25.5 158.3C21.5 156 17.8 153.2 14.7 149.8C14.6 149.7 14.5 149.6 14.4 149.5C14 149 13.5 148.5 13.1 148L12.6 147.5C12.1 146.9 11.6 146.3 11.2 145.6C11.1 145.5 11.1 145.4 11 145.3C9.1 142.7 7.5 139.8 6.3 136.9C6.3 136.8 6.2 136.7 6.2 136.6C5.8 135.6 5.5 134.7 5.2 133.7C5.1 133.3 5 132.9 4.9 132.5C4.9 132.4 4.8 132.3 4.8 132.1C3.3 126.1 3.1 119.8 3.1 113.6C3.1 112.9 3.1 112.1 3.1 111.4C3.1 108.9 3.1 106.4 3.2 103.8C3.2 103.1 3.2 102.5 3.2 101.8C3.2 100.1 3.3 98.5 3.4 96.8C3.4 96.3 3.4 95.9 3.5 95.4C3.5 95.1 3.5 94.9 3.5 94.6C3.6 93.7 3.7 92.8 3.8 91.8Z" fill="#1F3C73"/>
<path opacity="0.1" d="M31.3 50H16.2C18.7 46.2 21.3 42.5 24.2 38.9C26.4 36.1 28.8 33.5 31.3 30.9V50Z" fill="#1F3C73"/>
<path opacity="0.1" d="M31.3 51.2V90.7H3.8C3.8 90.6 3.8 90.5 3.8 90.4C3.8 90.1 3.8 89.8 3.9 89.5C4 89 4 88.6 4 88.3C4 87.9 4.1 87.5 4.1 87.1C4.1 86.7 4.2 86.3 4.2 85.9C4.2 85.5 4.3 85.1 4.3 84.7C4.3 84.3 4.4 83.9 4.4 83.5C4.4 83.2 4.5 82.9 4.5 82.5C4.6 82 4.6 81.6 4.7 81.1C4.7 81 4.7 81 4.7 80.9C5.2 77.6 5.9 74.3 6.7 71C7.6 67.6 8.7 64.2 10.1 61C11.6 57.6 13.3 54.3 15.2 51.1L31.3 51.2Z" fill="#1F3C73"/>
<path opacity="0.1" d="M37.9 91.8V129.4H96.7V91.8H37.9ZM37.9 130.5V162.8C38.2 162.9 38.6 162.9 38.9 163C39.4 163.1 39.8 163.2 40.3 163.2C40.4 163.2 40.5 163.2 40.6 163.2C40.8 163.2 41 163.3 41.1 163.3C41.6 163.4 42 163.4 42.5 163.5C42.7 163.5 42.9 163.5 43.1 163.6H43.6C43.9 163.6 44.2 163.6 44.4 163.6C44.6 163.6 44.7 163.6 44.9 163.6C45 163.6 45.2 163.6 45.3 163.6C45.4 163.6 45.6 163.6 45.8 163.6C46 163.6 46.3 163.6 46.5 163.6H46.8C47 163.6 47.3 163.6 47.5 163.6C47.7 163.6 47.8 163.6 48 163.6H48.1C48.2 163.6 48.4 163.6 48.5 163.6H48.6L49.5 163.5C49.8 163.5 50.1 163.4 50.4 163.4L51 163.3C53.5 162.9 56 162.4 58.5 161.7C64 160.2 69.4 158 74.8 156.5C81.9 154.5 89.7 153.5 96.6 156V130.6H37.9V130.5ZM96.7 50V6.13183e-06C90.3 -0.0999939 83.8 0.700006 77.6 2.20001C62.7 6.00001 49.3 14.1 37.9 24.5V50H40.9V51.2H37.9V90.7H96.7V51.2H53V50H96.7ZM172.3 33.1C168.6 33 164.9 31.8 161.6 30C155.3 26.6 150.2 21.2 144.5 16.7C132.7 7.30001 118.2 1.70001 103.2 0.300006V50H187.2L187.4 49.8L172.3 33.1ZM180 31.8L188.1 40.7V29.4C185.4 29.8 183 30.6 180 31.8ZM188.1 170.8V130.5H170.8C170.8 130.3 170.7 130.2 170.7 130C170.8 130.2 170.8 130.3 170.8 130.5H103.3V159.6C103.9 160.1 104.6 160.6 105.2 161.1C105.9 161.6 106.5 162.2 107.2 162.8L107.9 163.4C108.2 163.7 108.5 163.9 108.9 164.2C109.6 164.7 110.2 165.3 110.9 165.8C111.2 166.1 111.6 166.3 111.9 166.6C117.2 170.7 122.8 174.3 128.6 177.5C129.9 178.2 131.2 178.9 132.6 179.6C133.5 180.1 134.4 180.5 135.3 180.9C136.6 181.6 138 182.2 139.4 182.8C152 188.5 165.4 192.3 179 194.3C182 194.7 185.1 195.1 188.2 195.4L188.1 170.8H188.4H188.1ZM103.3 51.2V90.7H188.1V51.2H103.3ZM103.3 91.8V129.4H188.1V91.8H103.3ZM194.7 29.4V41.9L205 30.5C201.6 30 198.2 29.6 194.7 29.4ZM194.7 91.8V129.3H277.2V91.8H194.7ZM276.8 173.8L277.1 130.6H194.6V195.9C199.9 196.1 205.2 196.1 210.5 195.7H210.6C213.1 195.5 215.7 195.3 218.2 195H218.3C231.7 193.4 244.8 189.9 257.2 184.6L276.8 173.8ZM293 98C292.7 97.3 292.4 96.5 292 95.8C291.4 94.4 290.7 93.1 290.1 91.8H283.7V129.3H300C300 118.7 297.3 107.9 293 98ZM283.7 130.5V167.7C288.3 163.3 292.2 158.3 294.9 152.5C298.3 145.6 299.8 138.1 299.9 130.5H283.7ZM283.7 80.9V90.7H289.5C287.8 87.3 285.8 84 283.7 80.9ZM227.8 36.7C227.4 36.5 226.9 36.4 226.5 36.2C221.9 34.5 217.3 33.1 212.6 32L196.7 49.4L196.4 49.7L196.6 49.9H253C245.2 44.6 236.7 40.1 227.8 36.7ZM254.7 51.2H195.9L194.7 52.3V90.7H204.8H277.1V72C270.6 64.1 263.1 57.1 254.7 51.2Z" fill="#1F3C73"/>
<path opacity="0.1" d="M31.3 71.1V90.7H3.8C3.8 90.6 3.8 90.5 3.8 90.4C3.8 90.1 3.8 89.8 3.9 89.5C4 89 4 88.6 4 88.3C4 87.9 4.1 87.5 4.1 87.1C4.1 86.7 4.2 86.3 4.2 85.9C4.2 85.5 4.3 85.1 4.3 84.7C4.3 84.3 4.4 83.9 4.4 83.5C4.4 83.2 4.5 82.9 4.5 82.5C4.6 82 4.6 81.6 4.7 81.1C4.7 81 4.7 81 4.7 80.9C5.2 77.6 5.9 74.3 6.7 71L31.3 71.1Z" fill="#1F3C73"/>
<path opacity="0.1" d="M3.8 91.8H31.4V129.4H5.8C5.7 129.8 5.7 130.2 5.6 130.6H31.3V160.9H31.2C30.5 160.6 29.8 160.3 29 160L28.5 159.8C27.8 159.5 27.1 159.1 26.3 158.7C26 158.6 25.8 158.4 25.5 158.3C21.5 156 17.8 153.2 14.7 149.8C14.6 149.7 14.5 149.6 14.4 149.5C14 149 13.5 148.5 13.1 148L12.6 147.5C12.1 146.9 11.6 146.3 11.2 145.6C11.1 145.5 11.1 145.4 11 145.3C9.1 142.7 7.5 139.8 6.3 136.9C6.3 136.8 6.2 136.7 6.2 136.6C5.8 135.6 5.5 134.7 5.2 133.7C5.1 133.3 5 132.9 4.9 132.5C4.9 132.4 4.8 132.3 4.8 132.1C3.3 126.1 3.1 119.8 3.1 113.6C3.1 112.9 3.1 112.1 3.1 111.4C3.1 108.9 3.1 106.4 3.2 103.8C3.2 103.1 3.2 102.5 3.2 101.8C3.2 100.1 3.3 98.5 3.4 96.8C3.4 96.3 3.4 95.9 3.5 95.4C3.5 95.1 3.5 94.9 3.5 94.6C3.6 93.7 3.7 92.8 3.8 91.8Z" fill="#1F3C73"/>
<path opacity="0.1" d="M58.6 56.8V90.6H37.9V56.8H40.9V45.4H53V56.9H58.6V56.8Z" fill="#1F3C73"/>
<path opacity="0.1" d="M58.6 91.8H37.9V129.4H58.6V91.8Z" fill="#1F3C73"/>
<path opacity="0.1" d="M37.9 130.5H58.6V161.7C56.2 162.4 53.7 162.9 51.1 163.3L50.5 163.4C50.2 163.4 49.9 163.5 49.6 163.5C49.3 163.5 49 163.6 48.7 163.6H48.6C48.5 163.6 48.3 163.6 48.2 163.6H48.1C47.9 163.6 47.8 163.6 47.6 163.6C47.4 163.6 47.1 163.6 46.9 163.6C46.8 163.6 46.7 163.6 46.6 163.6C46.4 163.6 46.1 163.6 45.9 163.6H45.4C45.3 163.6 45.1 163.6 45 163.6H44.5C44.2 163.6 43.9 163.6 43.7 163.6H43.2L42.6 163.5C42.1 163.5 41.7 163.4 41.2 163.3L40.7 163.2H40.4C39.9 163.1 39.5 163.1 39 163C38.7 162.9 38.3 162.9 38 162.8L37.9 130.5Z" fill="#1F3C73"/>
<path opacity="0.1" d="M188.1 52.8H171V90.6H188.1V52.8Z" fill="#1F3C73"/>
<path opacity="0.1" d="M188.1 91.8V129.4H103.3V113.2H148.5V122.8H171V91.8H188.1Z" fill="#1F3C73"/>
<path opacity="0.1" d="M188.4 170.8H188.1V195.4C185 195.1 182 194.8 179 194.3C165.3 192.3 152 188.4 139.3 182.7C135.7 181.1 132.1 179.3 128.6 177.3C122.8 174.1 117.2 170.4 111.9 166.4C110.6 165.4 109.3 164.3 108 163.3C107.1 162.6 106.2 161.8 105.3 161.1C104.7 160.6 104 160.1 103.4 159.6V130.5H170.9C170.9 130.3 170.8 130.2 170.8 130C170.9 130.2 170.9 130.3 170.9 130.5H188.2V170.8C188.2 170.8 188.3 170.8 188.4 170.8Z" fill="#1F3C73"/>
<path opacity="0.1" d="M232.7 50H221.6V46.5H226.6V36.2C227 36.4 227.5 36.5 227.9 36.7V46.5H232.7V50Z" fill="#1F3C73"/>
<path opacity="0.1" d="M259.5 90.7H204.9H194.8V52.8H197.7V80.8H210.8V64.2H221.6V51.2H232.7V64.3H243.5V80.9H259.5V90.7Z" fill="#1F3C73"/>
<path opacity="0.1" d="M194.7 91.8V129.4H259.5V91.8H194.7ZM277.1 173.6L277.2 143.9H259.5V130.6H194.7V195.9C200 196.1 205.3 196.1 210.6 195.7H210.7C213.2 195.5 215.8 195.3 218.3 195H218.4C231.8 193.4 244.9 189.9 257.3 184.6" fill="#1F3C73"/>
<path opacity="0.1" d="M284.9 130.5H300C299.9 138.1 298.3 145.6 295 152.5C292.2 158.2 288.3 163.3 283.8 167.7V143.8H284.9V130.5Z" fill="#1F3C73"/>
<path opacity="0.1" d="M300 129.4H284.9V98H293.1C297.3 107.9 300 118.7 300 129.4Z" fill="#1F3C73"/>
<path opacity="0.1" d="M188.1 63.3H179V75.2H188.2V63.3H188.1Z" fill="#1F3C73"/>
<path opacity="0.1" d="M188.1 87.9H179V90.6H188.2V87.9H188.1Z" fill="#1F3C73"/>
<path opacity="0.1" d="M188.1 91.8H179V99.8H188.2V91.8H188.1Z" fill="#1F3C73"/>
<path opacity="0.1" d="M188.1 112.5H179V124.4H188.2V112.5H188.1Z" fill="#1F3C73"/>
<path opacity="0.1" d="M188.1 137.1H179V149H188.2V137.1H188.1Z" fill="#1F3C73"/>
<path opacity="0.1" d="M188.1 170.8C188.2 170.8 188.3 170.8 188.4 170.8H188.1V173.6H179V161.7H188.1V170.8Z" fill="#1F3C73"/>
<path opacity="0.1" d="M188.1 186.3V195.5C185 195.2 182 194.9 179 194.4V186.3H188.1Z" fill="#1F3C73"/>
<path opacity="0.1" d="M142.5 128.5H103.3V129.4H142.5V128.5Z" fill="#1F3C73"/>
<path opacity="0.1" d="M142.5 130.5H103.3V133.8H142.5V130.5Z" fill="#1F3C73"/>
<path opacity="0.1" d="M142.5 144.8H103.3V150.2H142.5V144.8Z" fill="#1F3C73"/>
<path opacity="0.1" d="M142.5 161.1V166.5H111.8C110.5 165.5 109.2 164.4 107.9 163.4C107 162.7 106.1 161.9 105.2 161.2H142.5V161.1Z" fill="#1F3C73"/>
<path opacity="0.1" d="M142.5 177.4V182.8H139.3C135.7 181.2 132.1 179.4 128.6 177.4H142.5Z" fill="#1F3C73"/>
<path opacity="0.1" d="M218.3 95.5H210.6V103.2H218.3V95.5Z" fill="#1F3C73"/>
<path opacity="0.1" d="M51.2 59.5H43.5V67.2H51.2V59.5Z" fill="#1F3C73"/>
<path opacity="0.1" d="M51.2 77.4H43.5V85.1H51.2V77.4Z" fill="#1F3C73"/>
<path opacity="0.1" d="M51.2 95.3H43.5V103H51.2V95.3Z" fill="#1F3C73"/>
<path opacity="0.1" d="M51.2 113.3H43.5V121H51.2V113.3Z" fill="#1F3C73"/>
<path opacity="0.1" d="M51.2 131.2H43.5V138.9H51.2V131.2Z" fill="#1F3C73"/>
<path opacity="0.1" d="M51.2 149.1H43.5V156.8H51.2V149.1Z" fill="#1F3C73"/>
<path opacity="0.1" d="M247.8 95.5H240.1V103.2H247.8V95.5Z" fill="#1F3C73"/>
<path opacity="0.1" d="M218.3 114.5H210.6V122.2H218.3V114.5Z" fill="#1F3C73"/>
<path opacity="0.1" d="M247.8 114.5H240.1V122.2H247.8V114.5Z" fill="#1F3C73"/>
<path opacity="0.1" d="M218.3 133.5H210.6V141.2H218.3V133.5Z" fill="#1F3C73"/>
<path opacity="0.1" d="M247.8 133.5H240.1V141.2H247.8V133.5Z" fill="#1F3C73"/>
<path opacity="0.1" d="M218.3 152.6H210.6V160.3H218.3V152.6Z" fill="#1F3C73"/>
<path opacity="0.1" d="M247.8 152.6H240.1V160.3H247.8V152.6Z" fill="#1F3C73"/>
<path opacity="0.1" d="M218.3 171.6H210.6V179.3H218.3V171.6Z" fill="#1F3C73"/>
<path opacity="0.1" d="M247.8 171.6H240.1V179.3H247.8V171.6Z" fill="#1F3C73"/>
<path opacity="0.1" d="M210.6 195.6V190.6H218.3V194.9L210.6 195.6Z" fill="#1F3C73"/>
<path opacity="0.1" d="M4.9 81V85.4H31.3V81H4.9ZM7.5 85.1H5.4V81.2H7.6L7.5 85.1ZM10.2 85.1H8V81.2H10.2V85.1ZM12.8 85.1H10.6V81.2H12.8V85.1ZM15.4 85.1H13.2V81.2H15.4V85.1ZM18 85.1H15.8V81.2H18V85.1ZM20.7 85.1H18.5V81.2H20.7V85.1ZM23.3 85.1H21.1V81.2H23.3V85.1ZM25.9 85.1H23.7V81.2H25.9V85.1ZM28.6 85.1H26.4V81.2H28.6V85.1ZM31.2 85.1H29V81.2H31.2V85.1Z" fill="#1F3C73"/>
<path opacity="0.1" d="M4.9 93.9V98.3H31.3V93.9H4.9ZM7.5 98H5.4V94.1H7.6L7.5 98ZM10.2 98H8V94.1H10.2V98ZM12.8 98H10.6V94.1H12.8V98ZM15.4 98H13.2V94.1H15.4V98ZM18 98H15.8V94.1H18V98ZM20.7 98H18.5V94.1H20.7V98ZM23.3 98H21.1V94.1H23.3V98ZM25.9 98H23.7V94.1H25.9V98ZM28.6 98H26.4V94.1H28.6V98ZM31.2 98H29V94.1H31.2V98Z" fill="#1F3C73"/>
<path opacity="0.1" d="M4.9 106.7V111.1H31.3V106.7H4.9ZM7.5 110.8H5.4V107H7.6L7.5 110.8ZM10.2 110.8H8V107H10.2V110.8ZM12.8 110.8H10.6V107H12.8V110.8ZM15.4 110.8H13.2V107H15.4V110.8ZM18 110.8H15.8V107H18V110.8ZM20.7 110.8H18.5V107H20.7V110.8ZM23.3 110.8H21.1V107H23.3V110.8ZM25.9 110.8H23.7V107H25.9V110.8ZM28.6 110.8H26.4V107H28.6V110.8ZM31.2 110.8H29V107H31.2V110.8Z" fill="#1F3C73"/>
<path opacity="0.1" d="M4.9 119.6V124H31.3V119.6H4.9ZM7.5 123.7H5.4V119.8H7.6L7.5 123.7ZM10.2 123.7H8V119.8H10.2V123.7ZM12.8 123.7H10.6V119.8H12.8V123.7ZM15.4 123.7H13.2V119.8H15.4V123.7ZM18 123.7H15.8V119.8H18V123.7ZM20.7 123.7H18.5V119.8H20.7V123.7ZM23.3 123.7H21.1V119.8H23.3V123.7ZM25.9 123.7H23.7V119.8H25.9V123.7ZM28.6 123.7H26.4V119.8H28.6V123.7ZM31.2 123.7H29V119.8H31.2V123.7Z" fill="#1F3C73"/>
<path opacity="0.1" d="M5 132.4C5.1 132.8 5.2 133.2 5.4 133.6V132.6H7.6V136.5H6.4C6.4 136.6 6.5 136.7 6.5 136.8H31.3V132.4H5ZM10.2 136.6H8V132.7H10.2V136.6ZM12.8 136.6H10.6V132.7H12.8V136.6ZM15.4 136.6H13.2V132.7H15.4V136.6ZM18 136.6H15.8V132.7H18V136.6ZM20.7 136.6H18.5V132.7H20.7V136.6ZM23.3 136.6H21.1V132.7H23.3V136.6ZM25.9 136.6H23.7V132.7H25.9V136.6ZM28.6 136.6H26.4V132.7H28.6V136.6ZM31.2 136.6H29V132.7H31.2V136.6Z" fill="#1F3C73"/>
<path opacity="0.1" d="M11.1 145.3C11.2 145.4 11.2 145.5 11.3 145.6H12.7V147.5C12.9 147.7 13 147.9 13.2 148V145.6H15.4V149.5H14.5C14.6 149.6 14.7 149.7 14.8 149.8H31.3V145.4H11.1V145.3ZM18 149.4H15.8V145.5H18V149.4ZM20.7 149.4H18.5V145.5H20.7V149.4ZM23.3 149.4H21.1V145.5H23.3V149.4ZM25.9 149.4H23.7V145.5H25.9V149.4ZM28.6 149.4H26.4V145.5H28.6V149.4ZM31.2 149.4H29V145.5H31.2V149.4Z" fill="#1F3C73"/>
<path opacity="0.1" d="M25.6 158.1C25.8 158.2 26.1 158.4 26.4 158.5V158.4H28.6V159.6L29.1 159.8V158.4H31.3V160.7H31.4V158H25.6V158.1Z" fill="#1F3C73"/>
<path opacity="0.1" d="M188.1 170.8H188.4H188.1ZM170.7 130C170.8 130.2 170.8 130.3 170.8 130.5C170.8 130.4 170.7 130.2 170.7 130ZM40.9 50V51.2H53V50H40.9ZM188.1 170.8H188.4H188.1ZM170.7 130C170.8 130.2 170.8 130.3 170.8 130.5C170.8 130.4 170.7 130.2 170.7 130ZM188.1 170.8H188.4H188.1ZM170.7 130C170.8 130.2 170.8 130.3 170.8 130.5C170.8 130.4 170.7 130.2 170.7 130Z" fill="#1F3C73"/>
<path d="M125.3 103.1C125.3 103.1 124.2 103 124.2 101.4C124.2 99.8 123.4 96.9 123.4 96.9C123.4 96.9 122.7 91.8 121.8 91C120.9 90.2 119.7 85.5 119.7 85.5C119.7 85.5 119.5 82.9 119.1 82.4C118.7 81.8 118.1 80.5 117.3 78.6C116.5 76.7 113.1 75.3 113.1 75.3C113.1 75.3 106.9 71.7 105.2 70.6C105 70.5 104.9 70.4 104.8 70.3C104.5 69.9 103.2 69.9 103.2 69.9C103.1 69 102.9 68 102.9 67.1C102.9 67 102.9 66.9 102.9 66.8C104.8 65.6 106.3 63.8 107 61.7C107 61.6 107.1 61.5 107.1 61.4C107.2 61.4 107.3 61.3 107.4 61.2C107.5 61.1 107.6 61 107.6 60.9C107.8 60.5 107.8 60.1 108 59.8C108.2 59.4 108.7 59.2 109 58.9C109.9 58.2 110.1 56.9 110 55.8C110 54.9 109.8 54 109.9 53.1V52.9C109.9 52.8 109.9 52.6 110 52.5C110.1 51.8 110.4 51.2 110.6 50.5C110.8 49.8 110.8 49.1 110.4 48.5C109.8 47.7 108.7 47.5 107.7 47.4C106.5 47.3 105.5 47.4 104.8 46.5C104.5 46 104.1 45.5 103.6 45.1C103.4 45 102 44.1 102 44C100.6 43.3 98.9 43.2 97.4 43.6C96.6 43.8 95.9 44.2 95.1 44.4C93.4 44.8 91.5 44.4 90.1 45.3C89.3 45.8 88.8 46.7 88.4 47.5C88 48.2 87.7 48.9 87.3 49.6C86.7 50.7 86.1 51.9 85.8 53.2C85.7 53.5 85.7 53.8 85.7 54C85.7 54.1 85.7 54.2 85.7 54.3V54.4C85.7 54.5 85.7 54.6 85.7 54.7C85.7 54.8 85.7 54.8 85.7 54.9C85.7 55 85.7 55.1 85.7 55.2C85.7 55.3 85.7 55.4 85.8 55.6C85.8 55.7 85.8 55.7 85.8 55.7C85.8 55.8 85.9 55.9 85.9 56C85.9 56 85.9 56.1 86 56.1C86 56.2 86.1 56.3 86.1 56.4C86.1 56.4 86.1 56.5 86.2 56.5C86.3 56.6 86.4 56.7 86.4 56.9C87 57.6 87.8 58.1 88.5 58.8V58.9C88.5 59 88.5 59 88.5 59.1C88.5 60.6 88.9 62.1 89.7 63.4C90.4 64.7 91.5 65.8 92.8 66.7C92.8 66.8 92.8 66.9 92.8 67C92.9 67.8 92.8 68.6 92.8 69.4C92.7 69.3 92.6 69.2 92.4 69.1C92.2 69 92.1 69 91.9 69C91.8 69 91.7 69 91.6 69C91 69.1 90.3 69.8 89.6 71.5C89.6 71.5 87.5 73.9 85.8 73.8C84.2 73.7 80 76.3 80 76.3C80 76.3 76 78.9 75.1 81.6C74.6 83.1 74 84.6 73.4 86L68.4 96.2L67.5 104.3C67.5 104.3 68 107.9 67.9 108.5C67.8 109.1 70 114 70 114C70 114 77.2 126.7 80.2 127.4L80.4 127.3C80.5 127.4 80.7 127.4 80.8 127.4L81.4 127C81.4 127.5 81.4 128 81.4 128.4C81 129.7 81.6 137.8 82.3 139.4C83 141 82.8 162 82.8 162L82.7 163.9C82.7 163.9 82.7 164 82.7 164.1V164.5H82.8C82.9 165.1 82.9 165.7 82.7 166.3C82.4 167.1 82.3 169.4 82.3 169.4C82.3 169.4 80.3 182.4 81.2 185C82.2 187.6 83 190.5 83 190.5C83 190.5 84 193.8 83 194.3C82 194.9 79.3 195.8 79.8 197.1C80.3 198.4 82.3 201.7 82.6 202.2V202.5L82.2 206.8C82.3 207.4 82.4 207.9 82.7 208.5C83.1 209.4 84 210.4 85.6 210.3C85.9 210.3 86.2 210.2 86.5 210.2C89.5 209.8 93.1 208.5 93.1 208.5C92.9 208.4 92.7 208.2 92.6 208.1C92.5 208 92.3 207.8 92.3 207.6C92.2 207.4 92.2 207.2 92.2 207C92.2 206.2 90.8 202.5 90.4 201.5C90.3 201.4 90.3 201.3 90.3 201.3C90.3 201.3 93.7 197.8 93.1 194.7C93.1 194.7 89.4 192.5 90.6 191.3C91.8 190.1 94 186.7 94 186.7C94 186.7 94.1 173.9 94 172C93.9 170.7 94 169.3 94.2 168C94.2 167.8 94.3 167.6 94.3 167.4C96 167.7 97.7 167.8 99.4 167.8C100 167.8 100.7 167.8 101.3 167.8C101.3 168 101.3 168.2 101.3 168.4C101.4 171.6 101.7 177.1 101.9 179.2C102.2 182.2 103.9 190.1 103.9 190.1C103.9 190.1 100.7 192.2 104.5 197.2C104.5 197.2 104.5 199 104.3 199.3C104 200.2 103.8 201.1 103.7 201.9C103.5 202.9 103.5 203.8 103.7 204.3C104.3 205.5 108 205.4 108 205.4H108.1C108.8 205.3 109.5 205.4 110.2 205.6C110.9 205.8 111.5 206.1 112 206.6C113.4 207.7 118.7 207.2 121.5 206.9C122.6 206.8 123.4 206.6 123.4 206.6C123.4 206.5 123.4 206.3 123.4 206.2C123.4 205.5 122.8 204 119.1 202.6C119.1 202.6 115.6 200.2 115.6 198.2H115.5H115.1C115.4 198.2 115.6 198.2 115.6 198.2C115.6 198.2 114.2 193.2 114.8 192.8C115.4 192.4 113.7 186.8 113.7 186.8C113.7 186.8 112.7 177.5 112.7 176.8C112.7 176.2 112.8 175.7 113 175.1L112.7 170C112.7 170 112.7 168.3 112.7 167.7C112.7 167.2 112.7 166.7 112.6 166.3C112.6 166.1 112.6 165.9 112.5 165.7C113.8 165.4 114.7 165.1 114.7 165.1L114.5 147.3C115.6 145.1 115.8 140.4 115.8 137C115.8 134.8 115.7 133.2 115.7 133.2L117.2 130.7C117.2 130.7 117.6 127.7 117 127.1C116.8 126.8 116.9 126.5 117.1 126.2C117.2 126.1 117.3 126 117.4 126C117.4 126 117.4 126 117.4 125.9C117.5 125.8 117.6 125.7 117.7 125.7C117.7 125.7 117.2 124.9 117.6 124.5C118.1 124.8 118.5 125 118.8 125.2C118.8 125.4 118.8 125.5 118.8 125.5L118.9 125.2C119.2 125.4 119.4 125.5 119.4 125.5C119.4 125.5 121.8 120.7 121.7 120C121.6 119.3 123.3 116.3 123.3 116.3C123.3 116.3 123.5 114.7 124.4 114.1C125.3 113.4 125.1 108.7 125.1 108.7C125.1 108.7 125.4 106.2 126 105.2C126.5 104.4 125.3 103.1 125.3 103.1ZM79.5 101V102.1C79.2 101.7 79 101.3 79 101.3L79.5 101Z" fill="url(#paint0_linear)"/>
<path d="M119.3 123.6L118.7 126.1C118.7 126.1 114 123.7 113.2 120.7C112.4 117.7 114.6 116.5 114.6 116.5L119 118.4L119.3 123.6Z" fill="white"/>
<path opacity="0.1" d="M119.3 123.6L118.7 126.1C118.7 126.1 114 123.7 113.2 120.7C112.4 117.7 114.6 116.5 114.6 116.5L119 118.4L119.3 123.6Z" fill="black"/>
<path d="M93 208.6C93 208.6 88.7 210.2 85.7 210.4C84.1 210.5 83.3 209.5 82.9 208.6C82.7 208.1 82.5 207.5 82.5 207L82.9 202.7L83.1 200.4L89.4 198.8L90.3 201.5L90.4 201.7C90.8 202.6 92.2 206.4 92.2 207.1C92.2 207.3 92.2 207.5 92.3 207.7C92.4 207.9 92.5 208.1 92.6 208.2C92.6 208.3 92.8 208.4 93 208.6Z" fill="white"/>
<path d="M122.6 206.4C122.6 206.5 122.6 206.7 122.6 206.8C122.6 206.8 113.3 208.4 111.4 206.8C110.9 206.3 110.2 206 109.6 205.8C108.9 205.6 108.2 205.5 107.5 205.6C107.5 205.6 103.9 205.7 103.3 204.5C103 204 103.1 203 103.3 202.1C103.5 201.2 103.7 200.3 103.9 199.5L104 199.4L104.9 198.7L114.9 198.4H115C115 200.4 118.4 202.8 118.4 202.8C122.1 204.1 122.6 205.7 122.6 206.4Z" fill="white"/>
<path opacity="0.1" d="M122.6 206.4C122.6 206.5 122.6 206.7 122.6 206.8C122.6 206.8 113.3 208.4 111.4 206.8C110.9 206.3 110.2 206 109.6 205.8C108.9 205.6 108.2 205.5 107.5 205.6C107.5 205.6 103.9 205.7 103.3 204.5C103 204 103.1 203 103.3 202.1C104.7 202.2 106.9 202.6 107.7 203.4C109 204.7 111.2 205.9 112.5 206C113.6 206.1 119.9 206.3 122.6 206.4Z" fill="black"/>
<path opacity="0.1" d="M93 208.6C93 208.6 88.7 210.2 85.7 210.4C84.1 210.5 83.3 209.5 82.9 208.6C84 209 85.5 209.4 86.3 209C87.3 208.6 90.6 208.3 92.5 208.2C92.6 208.3 92.8 208.4 93 208.6Z" fill="black"/>
<path d="M99.4 79.9C95.8 78.5 91.2 73.9 92.4 71.8C92.7 71.3 92.8 70.7 92.8 70.1C92.9 69.3 92.9 68.5 92.8 67.7C92.7 66.4 92.6 65 92.3 63.7C92.3 63.7 103.5 64 102.8 65.6C102.6 66.1 102.6 66.9 102.6 67.9C102.7 68.8 102.8 69.9 102.9 70.8C103.1 72 103.3 73 103.3 73C103.3 73 102.6 74 102.2 74C102 73.9 104.6 81.9 99.4 79.9Z" fill="#CF6F80"/>
<path opacity="0.1" d="M90.3 201.6C86.9 197.6 82.8 202.7 82.8 202.7L82.7 202.6L82.9 200.3L89.2 198.7L90.1 201.4L90.3 201.6Z" fill="black"/>
<path opacity="0.1" d="M115 198.7C115 198.7 112.6 198.6 111.3 199.8C110 201 103.7 200.1 104 199.8C104.1 199.7 104.1 199.5 104.1 199.4L105 198.7L115 198.4C115 198.6 115 198.7 115 198.7Z" fill="black"/>
<path d="M94.4 166.9C94.2 167.3 94.1 167.8 94 168.3C93.8 169.6 93.7 170.9 93.8 172.3C93.9 174.2 93.8 186.9 93.8 186.9C93.8 186.9 91.7 190.3 90.5 191.5C89.3 192.7 92.9 194.8 92.9 194.8C93.4 197.9 90.2 201.4 90.2 201.4C86.9 197.4 82.8 202.4 82.8 202.4C82.8 202.4 80.6 198.6 80.1 197.2C79.6 195.8 82.2 194.9 83.2 194.4C84.1 193.8 83.2 190.6 83.2 190.6C83.2 190.6 82.4 187.8 81.4 185.2C80.4 182.6 82.4 169.7 82.4 169.7C82.4 169.7 82.5 167.4 82.8 166.6C82.9 166 82.9 165.4 82.9 164.8C82.9 164.6 82.9 164.4 82.9 164.3C82.9 164.2 82.9 164.1 82.9 164.1V164L84.3 161.5C84.1 161.5 95.1 165.3 94.4 166.9Z" fill="#1F3C73"/>
<path d="M115 198.4C115 198.4 112.6 198.3 111.3 199.5C110 200.6 103.7 199.8 104 199.5C104.3 199.2 104.2 197.4 104.2 197.4C100.5 192.4 103.7 190.3 103.7 190.3C103.7 190.3 102 182.4 101.8 179.4C101.6 177.3 101.3 171.8 101.2 168.7C101.1 167.3 101.1 166.4 101.1 166.4L104.1 165.8L104.5 165.7L111.8 164.2C111.8 164.2 112 165.6 112.1 166.7C112.2 167.2 112.2 167.7 112.2 168.1C112.2 168.6 112.2 170.3 112.2 170.3L112.4 175.4C112.2 175.9 112.2 176.5 112.2 177C112.2 177.6 113.2 186.9 113.2 186.9C113.2 186.9 114.8 192.4 114.3 192.8C113.6 193.4 115 198.4 115 198.4Z" fill="#1F3C73"/>
<path opacity="0.1" d="M102.9 65.5C102.7 66 102.7 66.8 102.7 67.8C101.2 68.7 99.5 69.2 97.7 69.1C96 69.1 94.2 68.5 92.8 67.6C92.7 66.3 92.6 64.9 92.3 63.6C92.4 63.6 103.6 63.9 102.9 65.5Z" fill="black"/>
<path d="M107.2 59.5C107.2 60.5 107 61.5 106.7 62.4C106 64.5 104.6 66.3 102.8 67.4C100.9 68.6 98.7 69 96.6 68.7C94.4 68.4 92.4 67.3 91 65.7C89.5 64.1 88.7 62 88.7 59.8C88.7 59.7 88.7 59.7 88.7 59.6C88.7 58.4 88.9 57.1 89.4 56C89.9 54.9 90.5 53.8 91.4 52.9C92.3 52 93.3 51.3 94.4 50.8C95.5 50.3 96.8 50.1 98 50.1C99.2 50.1 100.5 50.3 101.6 50.8C102.7 51.3 103.8 52 104.6 52.9C105.5 53.8 106.1 54.8 106.6 56C107 57.1 107.3 58.3 107.2 59.5Z" fill="#CF6F80"/>
<path opacity="0.1" d="M99.4 79.9C95.8 78.5 91.2 73.9 92.4 71.8C92.7 71.3 92.8 70.7 92.8 70.1L97.7 74.1L100.7 76.6L103 70.7C103.2 71.9 103.4 72.9 103.4 72.9C103.4 72.9 102.7 73.9 102.3 73.9C102 73.9 104.6 81.9 99.4 79.9Z" fill="black"/>
<path d="M112.1 97.7L108 166.5L102.7 166.9L88.8 127L91.1 79.6L91.6 69.6L97.8 74.7L100.8 77.2L103.2 71.2L107.6 75L112.1 97.7Z" fill="#1F3C73"/>
<path opacity="0.1" d="M94.4 166.9C94.2 167.3 94.1 167.8 94 168.3C90.1 167.7 86.3 166.5 82.8 164.8H82.7V164.4V164.2L84.1 161.7C84.1 161.6 95.1 165.3 94.4 166.9Z" fill="black"/>
<path opacity="0.1" d="M104.1 168.3C103.1 168.5 102.1 168.6 101.1 168.6C101 167.2 101 166.3 101 166.3L104 165.7L104.1 168.3Z" fill="black"/>
<path opacity="0.1" d="M112 166.7C110.1 167.2 107.1 167.8 104.4 167.4V165.7L111.7 164.2C111.7 164.2 111.9 165.6 112 166.7Z" fill="black"/>
<path opacity="0.1" d="M104.4 167.7C93.3 169.6 83.1 164.2 83.1 164.2L83.2 162.4C83.2 162.4 83.5 141.5 82.8 139.9C82.1 138.3 81.6 130.2 82 128.9C82.4 127.7 80.6 108.9 80.6 108.9L80.3 101.3L69.4 96.9L74 86.6C74.7 85.2 75.2 83.7 75.7 82.2C76.5 79.6 80.5 77 80.5 77C80.5 77 84.5 74.4 86.1 74.5C87.7 74.6 89.8 72.2 89.8 72.2C91.3 68.3 92.7 70 92.7 70C92.7 70.2 92.7 70 92.6 70.6C92.1 74.9 101.4 88.6 101.5 88.9L102.4 110.5L103.3 137.9L104.4 167.7Z" fill="black"/>
<path d="M104.1 167.7C93 169.6 82.8 164.2 82.8 164.2L82.9 162.4C82.9 162.4 83.2 141.5 82.4 139.9C81.7 138.3 81.2 130.2 81.6 128.9C82 127.7 80.2 108.9 80.2 108.9L79.9 101.3L69 96.9L73.9 86.7C74.6 85.3 75.1 83.8 75.6 82.3C76.4 79.7 80.4 77.1 80.4 77.1C80.4 77.1 84.4 74.5 86 74.6C87.6 74.7 89.7 72.3 89.7 72.3C91.3 68.4 93 70.1 93 70.1C93 70.3 92.8 70.4 92.9 70.7C94.1 74.9 101.4 88.7 101.5 89L102.4 110.6L103.3 138L104.1 167.7Z" fill="white"/>
<path opacity="0.1" d="M101.1 89.4C99.9 88.9 93.6 81.7 93.6 81.7V80.1C93.4 79.6 92 79.9 90.9 80.3L91.4 70.3L91.9 70.8C93 74.9 100.9 89.2 101.1 89.4Z" fill="black"/>
<path d="M101.4 88.8C100.2 88.3 93.9 81.1 93.9 81.1V79.5C93.7 79 92.3 79.3 91.2 79.7L91.7 69.7L92.2 70.2C93.3 74.3 101.2 88.6 101.4 88.8Z" fill="white"/>
<path opacity="0.1" d="M83 125C83.1 125 90.7 124.2 90.7 124.2C90.7 124.2 95.3 133.2 95 135.4C94.7 137.6 94.2 139.5 92.3 139.2C90.4 138.9 82.4 139.5 82.4 139.5L83 125Z" fill="black"/>
<path d="M82.7 124.4C82.8 124.4 90.4 123.6 90.4 123.6C90.4 123.6 95 132.6 94.7 134.8C94.4 137 93.9 138.9 92 138.6C90.2 138.3 82.1 138.9 82.1 138.9L82.7 124.4Z" fill="white"/>
<path d="M88.5 120.1C88.5 120.1 95.5 123.8 95.6 125C95.7 126.1 92.1 124.5 91.3 124.3C90.8 124.2 90.2 124.1 89.7 124L84.4 124.1L88.5 120.1Z" fill="#CF6F80"/>
<path opacity="0.1" d="M99.1 89.9C99.5 89.9 99.8 89.6 99.8 89.2C99.8 88.8 99.5 88.5 99.1 88.5C98.7 88.5 98.4 88.8 98.4 89.2C98.4 89.6 98.7 89.9 99.1 89.9Z" fill="black"/>
<path d="M99.1 89.6C99.5 89.6 99.8 89.3 99.8 88.9C99.8 88.5 99.5 88.2 99.1 88.2C98.7 88.2 98.4 88.5 98.4 88.9C98.4 89.3 98.7 89.6 99.1 89.6Z" fill="#3F3D56"/>
<path opacity="0.1" d="M100.5 121.6C100.9 121.6 101.2 121.3 101.2 120.9C101.2 120.5 100.9 120.2 100.5 120.2C100.1 120.2 99.8 120.5 99.8 120.9C99.7 121.3 100.1 121.6 100.5 121.6Z" fill="black"/>
<path d="M100.5 121.3C100.9 121.3 101.2 121 101.2 120.6C101.2 120.2 100.9 119.9 100.5 119.9C100.1 119.9 99.8 120.2 99.8 120.6C99.7 121 100.1 121.3 100.5 121.3Z" fill="#3F3D56"/>
<path opacity="0.1" d="M99.9 105.8C100.3 105.8 100.6 105.5 100.6 105.1C100.6 104.7 100.3 104.4 99.9 104.4C99.5 104.4 99.2 104.7 99.2 105.1C99.1 105.4 99.4 105.8 99.9 105.8Z" fill="black"/>
<path d="M99.9 105.5C100.3 105.5 100.6 105.2 100.6 104.8C100.6 104.4 100.3 104.1 99.9 104.1C99.5 104.1 99.2 104.4 99.2 104.8C99.1 105.1 99.4 105.5 99.9 105.5Z" fill="#3F3D56"/>
<path d="M116.7 123.9C116.7 123.9 117.2 124.6 116.7 125C116.2 125.4 116.7 126.2 116.7 126.2C116.7 126.2 115.5 126.9 116 127.6C116.5 128.3 116.2 131.2 116.2 131.2L114.7 133.7C114.7 133.7 114.8 135.3 114.8 137.5C114.8 140.9 114.6 145.6 113.5 147.8L113.7 165.5C113.7 165.5 108.5 167.4 104.1 166.8L103.4 138.3C103.4 138.3 104.4 122.2 104.7 119.1C104.9 117.5 105 115.9 104.9 114.3C104.9 114.3 104.8 109.5 104.2 107.2C104.2 107.2 103.7 97.5 103.6 94.8C103.6 93.5 103.6 89.7 103.7 86.2C103.8 82.3 103.9 78.6 103.9 78.6L102.9 70.8C102.9 70.8 103.9 70.7 104.2 71.1C104.3 71.2 104.5 71.3 104.6 71.4C106.3 72.6 112.4 76.1 112.4 76.1C112.4 76.1 115.7 77.4 116.5 79.3C117.3 81.2 117.9 82.6 118.2 83.1C118.6 83.6 118.8 86.2 118.8 86.2C118.8 86.2 120 90.9 120.8 91.7C121.7 92.5 122.4 97.6 122.4 97.6L114.5 103.8C114.5 103.8 113.8 114.2 113.7 114.6C113.7 114.9 116.7 123.9 116.7 123.9Z" fill="white"/>
<path d="M117.1 123.9C117.1 123.9 117.6 124.6 117.1 125C116.6 125.4 117.1 126.2 117.1 126.2C117.1 126.2 115.9 126.9 116.4 127.6C116.9 128.3 116.6 131.2 116.6 131.2L115.1 133.7C115.1 133.7 115.2 135.3 115.2 137.5C115.2 140.9 115 145.6 113.9 147.8L114.1 165.5C114.1 165.5 108.8 167.4 104.5 166.8L103.9 138.3C103.9 138.3 104.8 122.2 105.2 119.1C105.4 117.5 105.5 115.9 105.4 114.3C105.4 114.3 105.3 109.5 104.8 107.2C104.8 107.2 104.3 97.5 104.2 94.8C104.2 93.5 104.2 89.7 104.3 86.2C104.4 82.3 104.5 78.6 104.5 78.6L103.2 70.7C103.2 70.7 104.5 70.7 104.8 71.1C104.9 71.2 105.1 71.3 105.2 71.4C106.9 72.6 113 76.1 113 76.1C113 76.1 116.3 77.4 117.1 79.3C117.9 81.2 118.5 82.6 118.8 83.1C119.2 83.6 119.4 86.2 119.4 86.2C119.4 86.2 120.6 90.9 121.4 91.7C122.3 92.5 122.9 97.5 122.9 97.5L115 103.7C115 103.7 114.3 114.1 114.2 114.5C114 114.9 117.1 123.9 117.1 123.9Z" fill="white"/>
<path opacity="0.1" d="M107.5 80.8L108.2 82.9L104.4 86.7C104.5 82.8 104.6 79.1 104.6 79.1L103.3 71.2C103.3 71.2 104.6 71.2 104.9 71.6C105 71.7 105.2 71.8 105.3 71.9L108.5 81.2L107.5 80.8Z" fill="black"/>
<path d="M107.2 80.2L107.9 82.3L104.1 86.1C104.2 82.2 104.3 78.5 104.3 78.5L103 70.6C103 70.6 104.3 70.6 104.6 71C104.7 71.1 104.9 71.2 105 71.3L108.2 80.6L107.2 80.2Z" fill="white"/>
<path opacity="0.1" d="M107.2 59.5C107.2 60.5 107 61.5 106.7 62.4C106.6 62.4 106.6 62.4 106.5 62.4C106.4 62.4 106.4 62.4 106.4 62.3C106.3 59.9 105.1 57.6 103.6 55.6C103.2 55 102.7 54.5 102.1 54.1C101.5 53.7 100.8 53.5 100.1 53.5C99.3 53.6 98.6 54.2 97.7 54.2C96.6 54.3 95.6 53.5 94.6 53.5C94.2 53.5 93.7 53.6 93.3 53.8C92.9 54 92.5 54.3 92.3 54.6C91.7 55.3 91.3 56.1 91.1 56.9C90.7 58.2 90.4 59.5 90.4 60.9C90.4 61.7 90.3 62.6 89.6 62.9C89.7 62.3 89.6 61.8 89.4 61.2C89.2 60.7 88.9 60.2 88.6 59.8C88.6 59.7 88.6 59.7 88.6 59.6C88.6 58.4 88.8 57.1 89.3 56C89.8 54.9 90.4 53.8 91.3 52.9C92.2 52 93.2 51.3 94.3 50.8C95.4 50.3 96.7 50.1 97.9 50.1C99.1 50.1 100.4 50.3 101.5 50.8C102.6 51.3 103.7 52 104.5 52.9C105.4 53.8 106 54.8 106.5 56C107 57.1 107.3 58.3 107.2 59.5Z" fill="black"/>
<path d="M101.8 44.8C100.4 44.1 98.8 44 97.3 44.4C96.5 44.6 95.8 45 95.1 45.2C93.5 45.6 91.6 45.2 90.2 46.1C89.4 46.6 89 47.5 88.5 48.3L87.4 50.4C86.8 51.5 86.2 52.7 86 53.9C85.8 55.1 85.9 56.5 86.7 57.5C87.3 58.2 88.1 58.7 88.7 59.4C89.1 59.8 89.4 60.3 89.5 60.8C89.7 61.3 89.7 61.9 89.7 62.5C90.4 62.2 90.5 61.3 90.5 60.5C90.5 59.2 90.8 57.8 91.2 56.5C91.4 55.7 91.9 54.9 92.4 54.2C92.7 53.9 93 53.6 93.4 53.4C93.8 53.2 94.2 53.1 94.7 53.1C95.8 53.1 96.8 53.9 97.8 53.8C98.6 53.7 99.3 53.2 100.2 53.1C100.9 53 101.6 53.2 102.2 53.7C102.8 54.1 103.3 54.7 103.7 55.2C105.2 57.2 106.4 59.4 106.5 61.9C106.8 62.1 107.2 61.8 107.4 61.5C107.6 61.2 107.6 60.7 107.7 60.4C107.9 60 108.3 59.8 108.7 59.5C109.5 58.8 109.8 57.5 109.7 56.4C109.7 55.3 109.5 54.2 109.7 53.1C109.8 52.4 110.1 51.8 110.3 51.1C110.5 50.4 110.5 49.7 110.1 49.1C109.6 48.3 108.4 48.1 107.4 48C106.3 47.9 105.3 48 104.5 47.1C104.2 46.6 103.8 46.1 103.4 45.7C103.3 45.7 101.8 44.8 101.8 44.8Z" fill="#512E4E"/>
<path opacity="0.1" d="M72.3 102L69.5 96.8L68.6 104.9C68.6 104.9 69.1 108.5 69 109C68.9 109.6 71 114.5 71 114.5C71 114.5 78.1 127.1 81 127.8L90.8 120.8L88.2 117.5C88.2 117.5 87.3 117.1 87.1 117.5C87.1 117.5 82.3 109.2 81.8 108.6C81.3 108 81.4 106.8 81.4 106.8C81.4 106.8 80.7 106 80.9 105.3C81.1 104.6 79.5 102 79.5 102L81 100.6L72.3 102Z" fill="black"/>
<path d="M69.6 96.2L68.9 96.8L68 104.9C68 104.9 68.5 108.5 68.4 109C68.3 109.6 70.4 114.5 70.4 114.5C70.4 114.5 77.5 127.1 80.4 127.8L90.2 120.8L87.6 117.5C87.6 117.5 86.7 117.1 86.5 117.5C86.5 117.5 81.7 109.2 81.2 108.6C80.7 108 80.8 106.8 80.8 106.8C80.8 106.8 80.1 106 80.3 105.3C80.5 104.6 78.9 102 78.9 102L80.4 100.6L69.6 96.2Z" fill="white"/>
<path opacity="0.1" d="M116.1 127.9C116.6 128.6 116.3 131.5 116.3 131.5L114.8 134C114.8 134 114.9 135.6 114.9 137.8L112.4 138.6C112.2 138.7 111.9 138.7 111.7 138.6C111.5 138.6 111.2 138.5 111.1 138.3C111 138.1 110.8 138 110.7 137.8C110.6 137.6 110.5 137.3 110.6 137.1L111 123.1L116.9 125.3C116.4 125.6 116.9 126.5 116.9 126.5C116.9 126.5 115.6 127.2 116.1 127.9Z" fill="black"/>
<path d="M116.4 127.6C116.9 128.3 116.6 131.2 116.6 131.2L115.1 133.7C115.1 133.7 115.2 135.3 115.2 137.5L112.6 138.3C112.4 138.4 112.1 138.4 111.9 138.3C111.7 138.3 111.5 138.2 111.3 138C111.1 137.9 111 137.7 110.9 137.5C110.8 137.3 110.7 137.1 110.8 136.8L111.2 122.7L117.1 124.9C116.6 125.2 117.1 126.1 117.1 126.1C117.1 126.1 115.9 126.9 116.4 127.6Z" fill="white"/>
<path d="M118.3 120.9C118.3 120.9 117.9 123.4 116.9 123.6C115.9 123.8 115.5 127.7 114.5 127.6C113.5 127.5 114.2 123.9 114.2 123.2C114.2 122.5 113.1 119.7 114 119C114.9 118.3 117.5 119 117.5 119L118.3 120.9Z" fill="#CF6F80"/>
<path opacity="0.1" d="M120.5 101.3L122.4 97.5C122.4 97.5 123.1 100.4 123.1 101.9C123.1 103.4 124.1 103.6 124.1 103.6C124.1 103.6 125.2 105 124.6 105.9C124 106.9 123.8 109.3 123.8 109.3C123.8 109.3 124 114 123.1 114.6C122.2 115.2 122 116.8 122 116.8C122 116.8 120.3 119.7 120.4 120.4C120.5 121.1 118.1 125.8 118.1 125.8C118.1 125.8 119.2 119.9 112.6 117.4C112.6 117.4 112.5 115.4 113 114.8C113.5 114.3 114.3 114 113.8 111.2C113.3 108.4 113.7 105.1 113.7 104.5C113.7 103.9 115.2 99.7 115.2 99.7L120.5 101.3Z" fill="black"/>
<path d="M121.3 96.9L122.9 97.4C122.9 97.4 123.7 100.3 123.7 101.8C123.7 103.3 124.7 103.5 124.7 103.5C124.7 103.5 125.8 104.9 125.2 105.8C124.6 106.8 124.4 109.2 124.4 109.2C124.4 109.2 124.6 113.9 123.7 114.5C122.8 115.1 122.6 116.7 122.6 116.7C122.6 116.7 121 119.6 121 120.3C121.1 121 118.7 125.7 118.7 125.7C118.7 125.7 119.9 119.8 113.2 117.3C113.2 117.3 113.2 115.3 113.6 114.7C114.1 114.2 114.9 113.9 114.4 111.1C113.9 108.3 114.3 105 114.3 104.4C114.3 103.8 115.8 99.6 115.8 99.6L121.3 96.9Z" fill="white"/>
<path opacity="0.1" d="M84.9 195.4C84.9 195.4 87.5 193.8 89.2 194.9C91 196.2 84.9 195.4 84.9 195.4Z" fill="black"/>
<path opacity="0.1" d="M105.3 190.4C105.3 190.4 107.6 190.1 109.6 192.2C111.5 194.3 105.3 190.4 105.3 190.4Z" fill="black"/>
<g opacity="0.1">
<path opacity="0.1" d="M108.7 59.1C108.4 59.4 107.9 59.6 107.7 60C107.5 60.3 107.5 60.7 107.4 61.1C107.2 61.5 106.8 61.7 106.5 61.5C106.4 59.1 105.2 56.8 103.7 54.8C103.3 54.2 102.8 53.7 102.2 53.3C101.6 52.9 100.9 52.7 100.2 52.7C99.4 52.8 98.7 53.4 97.8 53.4C96.7 53.5 95.7 52.7 94.7 52.7C94.3 52.7 93.8 52.8 93.4 53C93 53.2 92.7 53.5 92.4 53.8C91.8 54.5 91.4 55.2 91.2 56.1C90.8 57.4 90.5 58.7 90.5 60.1C90.5 60.9 90.4 61.8 89.7 62.1C89.7 62.3 89.7 62.5 89.7 62.7C90.4 62.4 90.5 61.5 90.5 60.7C90.5 59.4 90.8 58 91.2 56.7C91.4 55.9 91.9 55.1 92.4 54.4C92.7 54.1 93 53.8 93.4 53.6C93.8 53.4 94.2 53.3 94.7 53.3C95.8 53.3 96.8 54.1 97.8 54C98.6 53.9 99.3 53.4 100.2 53.3C100.9 53.2 101.6 53.4 102.2 53.9C102.8 54.3 103.3 54.9 103.7 55.4C105.2 57.4 106.4 59.6 106.5 62.1C106.8 62.3 107.2 62 107.4 61.7C107.6 61.4 107.6 60.9 107.7 60.6C107.9 60.2 108.4 60 108.7 59.7C109.5 59 109.8 57.7 109.7 56.6V56.5C109.7 57.5 109.4 58.4 108.7 59.1Z" fill="black"/>
<path opacity="0.1" d="M88.7 58.9C88.1 58.2 87.2 57.8 86.7 57C86.2 56.4 85.9 55.6 85.9 54.8C85.8 55.8 86.1 56.8 86.7 57.6C87.3 58.3 88.1 58.8 88.7 59.5C89.3 60.2 89.7 61 89.7 61.9C89.7 61.4 89.7 60.8 89.5 60.3C89.3 59.8 89 59.3 88.7 58.9Z" fill="black"/>
<path opacity="0.1" d="M110.3 50.7C110.1 51.4 109.9 52 109.7 52.7C109.6 53.1 109.6 53.6 109.6 54.1C109.6 53.8 109.6 53.6 109.7 53.3C109.8 52.6 110.1 52 110.3 51.3C110.4 50.9 110.4 50.6 110.4 50.2C110.4 50.3 110.3 50.5 110.3 50.7Z" fill="black"/>
</g>
<path opacity="0.1" d="M36 206.5C50.6 206.5 62.5 204.6 62.5 202.3C62.5 200 50.7 198.1 36 198.1C21.3 198.1 9.5 200 9.5 202.3C9.6 204.6 21.4 206.5 36 206.5Z" fill="#1F3C73"/>
<path d="M36.9 120.8H35.2V159.1H36.9V120.8Z" fill="#535461"/>
<path d="M47.6 159.1L47.5 160.8L47.3 163.2L47.2 164.2L47.1 166.6L47 167.6L46.8 170L45.1 197.7C45 198.9 44.5 200 43.6 200.8C42.7 201.6 41.6 202.1 40.4 202.1H31.5C30.3 202.1 29.2 201.6 28.3 200.8C27.4 200 26.9 198.9 26.8 197.7L25.1 170L24.9 167.6L24.8 166.6L24.6 164.2L24.5 163.2L24.3 160.8L24.2 159.1C24.2 158.8 24.2 158.4 24.3 158.1C24.4 157.8 24.6 157.5 24.8 157.3C25 157.1 25.3 156.9 25.6 156.7C25.9 156.6 26.2 156.5 26.6 156.5H44.8C45.1 156.5 45.5 156.6 45.8 156.7C46.1 156.8 46.4 157 46.6 157.3C46.8 157.6 47 157.8 47.1 158.1C47.6 158.4 47.6 158.7 47.6 159.1Z" fill="#3F3D56"/>
<path d="M47.5 160.8L47.3 163.2H24.7L24.5 160.8H47.5Z" fill="#9D9CB5"/>
<path d="M47.3 164.2L47.2 166.6H25L24.8 164.2H47.3Z" fill="#9D9CB5"/>
<path d="M47 167.7L46.9 170.1H25.2L25 167.7H47Z" fill="#9D9CB5"/>
<path d="M22 135.2C31.9 142.4 36 153.6 36 153.6C36 153.6 24.1 153.2 14.1 146C4.2 138.8 0.1 127.6 0.1 127.6C0.1 127.6 12.1 128 22 135.2Z" fill="#1F3C73"/>
<path d="M0.1 127.6C0.1 127.6 12.5 134.5 16.5 140.2C20.5 145.9 36 153.6 36 153.6" stroke="#535461" stroke-width="2" stroke-miterlimit="10"/>
<path d="M28.4 120.8C33.8 124.7 36.1 130.8 36.1 130.8C36.1 130.8 29.6 130.6 24.2 126.7C18.8 122.8 16.6 116.7 16.6 116.7C16.6 116.7 23 116.9 28.4 120.8Z" fill="#1F3C73"/>
<path d="M16.5 116.6C16.5 116.6 23.2 120.3 25.4 123.4C27.6 126.5 36 130.7 36 130.7" stroke="#535461" stroke-width="2" stroke-miterlimit="10"/>
<path d="M43.9 130.5C37.7 137.3 36.4 146.2 36.4 146.2C36.4 146.2 45.1 144.1 51.3 137.2C57.5 130.4 58.8 121.5 58.8 121.5C58.8 121.5 50.1 123.7 43.9 130.5Z" fill="#1F3C73"/>
<path d="M58.8 121.5C58.8 121.5 50.7 128.5 48.7 133.3C46.6 138.1 36.4 146.2 36.4 146.2" stroke="#535461" stroke-width="2" stroke-miterlimit="10"/>
<path opacity="0.1" d="M238.077 168.191C238.077 168.957 238.274 169.722 238.373 170.488C235.314 170.105 232.551 170.297 230.676 170.392V168.095L238.077 168.191Z" fill="black"/>
<path opacity="0.1" d="M265.41 171.732C265.41 171.732 261.167 171.924 256.036 172.019C255.937 170.68 255.839 169.627 255.839 169.627C255.839 169.627 258.7 165.703 264.029 169.914C264.424 170.201 264.818 170.68 265.114 171.062C265.213 171.254 265.312 171.541 265.41 171.732Z" fill="black"/>
<path d="M224.262 113.351C224.262 113.351 220.513 117.275 223.374 119.38C226.236 121.582 228.111 119.572 228.111 119.572L224.262 113.351Z" fill="#C7DAF5"/>
<path opacity="0.1" d="M224.262 113.351C224.262 113.351 220.513 117.275 223.374 119.38C226.236 121.582 228.111 119.572 228.111 119.572L224.262 113.351Z" fill="black"/>
<path opacity="0.03" d="M257.615 94.1135C257.615 94.1135 252.582 103.397 253.174 106.938C253.767 110.48 255.444 114.499 254.655 115.361C254.359 115.743 254.063 116.031 253.569 116.222C253.174 116.413 252.681 116.509 252.286 116.509C251.497 116.605 249.326 118.04 249.326 118.136C249.326 118.328 247.353 118.328 245.576 118.997C243.8 119.763 241.235 120.146 241.235 120.146C241.235 120.146 236.103 119.955 235.709 120.433C235.215 120.912 234.722 123.687 235.807 125.888C236.794 128.09 237.978 129.812 238.768 130.1C239.656 130.387 244.984 128.664 249.425 128.185C253.767 127.803 258.602 124.357 258.602 124.357C258.602 124.357 263.832 122.539 264.72 119.476C265.608 116.413 263.634 99.5689 263.634 99.5689C263.634 99.5689 261.957 91.9123 257.615 94.1135Z" fill="black"/>
<path opacity="0.1" d="M257.319 118.519C257.319 118.519 253.273 117.753 254.655 118.997C256.036 120.337 256.036 121.39 257.714 121.39C259.588 121.39 257.319 118.519 257.319 118.519Z" fill="black"/>
<path opacity="0.1" d="M264.128 146.466C264.128 146.466 262.351 147.614 265.805 150.39C269.259 153.165 264.128 146.466 264.128 146.466Z" fill="black"/>
<path opacity="0.1" d="M260.674 156.228C260.674 156.419 259.983 161.97 262.45 163.31C264.818 164.746 260.674 156.228 260.674 156.228Z" fill="black"/>
<path opacity="0.1" d="M256.825 88.6582C254.753 89.9981 253.076 91.1466 252.681 91.4338C251.793 92.1037 250.017 96.0277 248.833 97.9419C247.945 99.5689 244.984 99.9517 243.899 100.047L243.998 98.8989C246.464 97.8461 248.438 94.305 248.438 94.305L253.372 85.8827L255.049 87.414C255.247 87.3183 255.839 87.8926 256.825 88.6582Z" fill="black"/>
<path d="M256.825 88.4668C254.753 89.8067 253.076 90.9552 252.681 91.2423C251.793 91.9123 250.017 95.8363 248.833 97.7504C247.945 99.3775 244.984 99.7603 243.899 99.856L243.998 98.7075C246.464 97.6547 248.438 94.1136 248.438 94.1136L253.372 85.6913L255.049 87.2226C255.247 87.1269 255.839 87.7012 256.825 88.4668Z" fill="#DCE7FF"/>
<path opacity="0.1" d="M246.761 92.1994C246.366 92.678 245.379 95.3578 244.59 97.7505C243.8 97.4633 243.109 95.5492 243.109 95.5492L247.254 89.8067C247.649 90.2853 247.451 91.2423 246.761 92.1994Z" fill="black"/>
<path d="M246.958 92.008C246.563 92.4865 245.576 95.1663 244.787 97.559C243.998 97.2719 243.307 95.3577 243.307 95.3577L247.451 89.6153C247.846 90.1895 247.55 91.1466 246.958 92.008Z" fill="#DCE7FF"/>
<path opacity="0.1" d="M220.513 110.862C220.71 110.767 220.907 110.862 221.006 110.862C221.203 110.958 221.302 111.054 221.302 111.245L223.67 118.328L223.473 119.476L223.67 119.667L223.868 118.136L221.499 111.054C221.401 110.862 221.302 110.767 221.203 110.671C221.006 110.575 220.809 110.575 220.71 110.671C220.611 110.671 220.414 110.767 220.315 110.958C220.414 110.958 220.414 110.862 220.513 110.862Z" fill="white"/>
<path d="M222.585 118.615L223.868 118.232L223.67 119.476V119.763L223.276 119.38L222.585 118.615Z" fill="#EFC8C4"/>
<path d="M223.276 119.285C223.276 119.285 223.374 119.285 223.276 119.285C223.374 119.189 223.374 119.189 223.374 119.189C223.374 119.189 223.374 119.189 223.473 119.189C223.473 119.189 223.473 119.189 223.473 119.285C223.473 119.285 223.473 119.381 223.572 119.381H223.671V119.668L223.276 119.285Z" fill="#727A9C"/>
<path d="M220.611 58.7018C220.907 58.4147 221.302 58.2233 221.598 58.0319C222.486 57.5533 223.473 57.4576 224.361 56.9791C225.15 56.5006 226.038 56.1177 226.927 55.8306C229.492 54.9692 232.255 54.7778 234.821 55.2564C239.261 56.022 242.123 59.8503 243.8 63.5829C245.774 67.8897 244.886 73.6322 242.912 77.8433C242.123 79.4703 241.037 81.0974 239.36 82.0544C237.781 83.0115 235.511 83.1072 234.031 81.9587C233.637 81.5759 233.242 81.1931 232.748 80.8102C231.564 79.8532 229.986 79.7575 228.407 79.8532C227.025 79.9489 225.545 80.0446 224.361 79.4703C221.401 77.8433 221.598 73.2494 220.611 70.4738C219.427 66.9327 217.947 63.3915 219.625 59.6589C219.723 59.3718 219.822 59.1804 220.019 58.9889C220.414 58.8932 220.513 58.7975 220.611 58.7018Z" fill="#591D4B"/>
<path d="M222.091 105.79L223.966 123.017L227.223 113.255L226.927 106.364L224.46 104.928L222.091 105.79Z" fill="#E29B88"/>
<path d="M214.888 132.779C215.085 131.535 217.158 128.855 217.158 128.855L220.71 127.611L227.223 127.133L227.42 128.473L224.46 131.152C224.361 132.109 224.065 134.502 223.67 134.789C223.177 135.172 222.289 135.172 222.289 135.172C222.289 135.172 221.302 136.033 220.217 135.268C220.217 135.268 219.723 136.703 218.243 136.129C218.243 136.129 215.875 137.948 215.085 135.555C215.085 135.651 214.691 134.024 214.888 132.779Z" fill="#E29B88"/>
<path d="M229.69 204.081L230.972 203.986L235.511 203.603H236.104C236.104 203.603 236.103 203.124 236.005 202.55C236.005 202.359 236.005 202.072 235.906 201.784C235.906 201.402 235.807 201.019 235.709 200.636C235.511 199.775 235.215 198.817 234.821 198.148C234.426 197.478 234.031 195.085 233.834 191.735C233.637 189.534 233.538 187.045 233.439 184.366C233.242 179.676 233.143 174.699 233.242 170.488V160.63L227.42 164.554C227.42 164.554 226.335 170.01 226.137 173.072C226.039 174.412 226.433 179.485 226.828 184.557C227.124 187.62 227.321 190.778 227.617 193.171C227.815 195.755 228.012 197.478 228.012 197.478C228.012 197.478 226.927 198.626 225.348 199.87C224.262 200.732 222.881 201.497 221.499 202.072C217.947 203.411 219.822 204.56 229.69 204.081Z" fill="#737A7A"/>
<path opacity="0.5" d="M226.927 184.653C227.223 187.715 227.42 190.874 227.716 193.266C229.788 192.788 232.156 192.214 233.933 191.831C233.735 189.63 233.637 187.141 233.538 184.461L226.927 184.653Z" fill="#CC8A79"/>
<path d="M235.511 203.699C235.807 203.794 236.202 203.986 236.893 204.081C238.472 204.273 241.136 204.368 245.083 204.177L251.497 203.699C251.497 203.699 251.497 202.263 251.201 200.732C251.004 199.87 250.708 198.913 250.313 198.243C249.918 197.573 249.523 195.276 249.326 192.022C249.129 189.917 249.03 187.333 248.931 184.653C248.734 179.963 248.635 174.795 248.734 170.584L250.905 165.703L243.011 164.65C243.011 164.65 241.925 170.105 241.728 173.168C241.629 174.508 242.024 179.676 242.419 184.94C242.715 188.003 242.912 190.969 243.208 193.362C243.406 195.946 243.603 197.669 243.603 197.669C243.603 197.669 242.517 198.817 240.939 200.062C239.853 200.923 238.472 201.689 237.09 202.263C236.992 202.263 236.992 202.263 236.893 202.359C236.696 202.454 236.399 202.55 236.301 202.646C235.117 202.933 234.919 203.316 235.511 203.699Z" fill="#737A7A"/>
<path opacity="0.5" d="M242.221 184.94C242.517 188.003 242.715 190.969 243.011 193.362C244.886 192.979 247.254 192.501 249.227 192.022C249.03 189.917 248.931 187.333 248.833 184.653L242.221 184.94Z" fill="#CC8A79"/>
<path d="M222.782 161.683L224.262 191.161L226.335 191.065L236.893 190.491L240.445 191.065L249.425 190.299L251.596 190.108L252.78 190.012L252.681 188.577L252.582 186.854L251.398 167.33C251.398 167.33 254.161 142.35 254.359 141.776C255.247 138.713 255.74 133.258 255.74 133.258L250.116 133.736L240.149 134.119L224.361 133.545L224.065 137.756L222.782 161.683Z" fill="#49C6F5"/>
<path d="M228.999 108.087C229.097 107.704 229.097 107.225 229.196 106.747L229.394 105.311C229.492 105.311 231.17 96.8891 230.775 93.635C230.38 90.381 229.591 88.2754 228.801 88.1797C228.012 87.9883 225.052 89.4239 223.769 92.1037C222.486 94.7835 220.71 105.216 220.71 105.216C220.71 105.216 220.611 105.79 220.513 106.747C222.387 106.938 226.236 107.608 228.999 108.087Z" fill="#49C6F5"/>
<path d="M224.262 137.565L255.839 135.938L255.74 128.377L255.543 118.232C253.865 112.202 252.188 106.077 252.089 99.7603C252.089 99.4732 252.188 99.0903 252.188 98.8032C251.3 91.4337 249.227 87.6054 248.339 86.2655C248.043 86.1698 247.747 85.9784 247.451 85.8827C245.28 84.8299 242.32 83.49 239.755 83.49L236.498 83.6814L235.709 83.7771H234.525C233.242 84.16 231.959 84.5428 230.775 85.2128C230.282 85.4042 229.887 85.6913 229.492 85.9784C229.097 86.2655 228.703 86.6484 228.407 87.0312C227.519 87.9883 226.729 89.2325 226.039 90.0938C223.177 93.4436 221.598 102.823 221.697 103.589C222.289 106.747 223.374 106.173 223.67 108.183C223.966 110.097 223.276 119.572 223.276 122.73C223.374 125.697 224.262 137.565 224.262 137.565Z" fill="#49C6F5"/>
<path opacity="0.7" d="M240.149 136.703L245.478 136.416C248.043 134.502 251.201 132.109 252.484 131.248C253.569 130.482 254.655 129.43 255.74 128.377L255.543 118.232C253.865 112.202 252.188 106.077 252.089 99.7602C252.089 99.4731 252.188 99.0903 252.188 98.8032C251.3 91.4337 249.227 87.6054 248.339 86.2655C248.043 86.1698 247.747 85.9784 247.451 85.8827C246.563 85.787 245.774 85.9784 245.379 86.744C244.195 88.8496 244.195 95.8362 249.523 107.991L249.819 108.374C249.819 108.374 251.99 119.476 252.286 121.486C252.582 123.496 246.859 131.248 243.702 133.736C242.123 134.981 240.939 136.033 240.149 136.703Z" fill="#A0CDE8"/>
<path d="M231.564 94.0178C231.564 94.0178 232.354 93.3479 233.439 92.4865C234.525 91.6251 241.235 84.3514 241.235 84.3514L239.754 78.8003L238.866 75.5463L234.821 76.6948C234.821 76.6948 234.623 82.3415 233.834 83.9685C233.341 85.117 232.946 86.4569 232.65 87.7968C231.86 90.9552 231.564 94.0178 231.564 94.0178Z" fill="#FAB29A"/>
<path d="M261.858 117.753C261.266 120.816 246.859 134.406 246.859 134.406L243.208 130.387C243.208 130.387 256.036 118.423 255.444 115.839C255.247 114.882 254.753 113.255 254.161 111.628C253.767 110.384 253.273 109.14 252.977 108.278C252.681 107.321 252.385 106.651 252.385 106.651L258.503 105.12C258.503 105.12 258.7 105.694 259.095 106.556C259.49 107.513 259.983 108.852 260.378 110.288C261.365 113.064 262.154 116.222 261.858 117.753Z" fill="#FAB29A"/>
<path opacity="0.5" d="M260.477 110.288C258.404 110.862 255.937 111.341 254.26 111.628C253.865 110.384 253.372 109.14 253.076 108.278L259.194 106.556C259.49 107.513 259.983 108.852 260.477 110.288Z" fill="#CC8A79"/>
<path d="M236.399 138.235C236.399 138.235 235.61 137.852 235.807 137.086C235.906 136.416 239.557 133.449 239.557 133.449C240.741 132.492 242.123 131.439 242.123 131.439C242.123 131.439 241.037 131.535 239.853 131.439C239.261 131.439 238.866 131.057 238.669 130.674C238.472 130.387 238.669 130.004 238.965 130.004C239.656 129.908 240.939 129.621 241.827 129.334C243.208 128.855 245.28 128.568 245.28 128.568L250.905 128.185C250.905 128.185 250.51 129.908 249.819 132.875C249.227 135.268 244.984 139.096 243.406 140.34C243.208 140.532 242.024 141.202 241.629 141.489C240.445 142.254 239.754 141.297 239.754 141.297C239.754 141.297 239.064 141.584 238.373 141.202C237.682 140.819 237.781 140.053 237.781 140.053H237.189C236.103 139.766 236.399 138.235 236.399 138.235Z" fill="#FAB29A"/>
<path d="M249.622 107.991C249.523 107.608 249.425 107.034 249.326 106.555L248.931 105.024C248.833 105.024 246.366 96.1234 246.761 92.5822C247.155 89.1367 247.945 86.8398 248.931 86.6483C249.918 86.4569 253.471 87.7968 255.247 90.6681C256.924 93.4436 259.588 104.546 259.588 104.546C259.588 104.546 259.687 105.12 259.885 106.173C257.516 106.555 252.878 107.417 249.622 107.991Z" fill="#49C6F5"/>
<path d="M220.019 135.076C220.019 135.076 221.006 131.918 220.315 131.152C219.723 130.387 217.651 131.152 217.75 134.981L217.651 135.555C217.75 135.555 219.131 136.703 220.019 135.076Z" fill="#FAB29A"/>
<path d="M222.19 135.076C222.19 135.076 222.782 132.014 222.486 131.344C222.19 130.674 221.203 130.674 220.71 131.727C220.217 132.684 220.118 135.172 220.118 135.172C220.118 135.172 221.006 136.033 222.19 135.076Z" fill="#FAB29A"/>
<path d="M218.046 135.938C218.046 135.938 218.243 133.736 218.243 132.779C218.243 131.822 217.454 131.535 216.862 131.822C216.27 132.109 216.171 134.694 216.171 135.363C216.171 136.033 216.171 136.033 216.171 136.033L217.355 136.321C217.355 136.225 217.75 136.321 218.046 135.938Z" fill="#FAB29A"/>
<path opacity="0.5" d="M232.65 87.7968C236.498 84.6385 238.669 81.0973 239.755 78.8003L238.866 75.5463L234.821 76.6948C234.821 76.6948 234.623 82.3415 233.834 83.9685C233.341 85.2127 232.946 86.5526 232.65 87.7968Z" fill="#CC8A79"/>
<path d="M222.98 71.9095C222.98 71.9095 222.289 70.2824 220.907 70.6653C219.526 71.0481 220.907 75.7378 223.769 75.0678L222.98 71.9095Z" fill="#FAB29A"/>
<path opacity="0.5" d="M222.782 72.2922C222.782 72.2922 221.894 71.6223 221.401 72.0051C220.907 72.3879 221.401 72.9622 221.795 73.1536C222.19 73.4407 222.585 73.345 222.585 73.345C222.585 73.345 222.289 73.7279 222.387 74.015C222.486 74.2064 223.473 74.6849 223.473 74.6849L222.782 72.2922Z" fill="#CC8A79"/>
<path d="M238.965 68.3683C238.965 68.3683 239.162 66.3584 241.136 66.167C243.11 65.9756 243.307 71.6223 239.261 72.1966L238.965 68.3683Z" fill="#FAB29A"/>
<path opacity="0.5" d="M239.458 68.6554C239.458 68.6554 240.347 67.5069 241.136 67.6983C241.925 67.8897 241.531 68.7511 241.136 69.1339C240.741 69.6124 240.149 69.6124 240.149 69.6124C240.149 69.6124 240.741 69.9953 240.741 70.1867C240.741 70.4738 239.557 71.3352 239.557 71.3352L239.458 68.6554Z" fill="#CC8A79"/>
<path d="M221.598 67.794C221.598 68.1768 221.697 68.5597 221.795 68.9425C222.387 70.6652 222.387 76.9819 224.953 79.9488C227.716 83.0115 230.775 85.3084 235.709 81.2887C240.149 77.7476 240.149 72.3879 239.952 70.4738C239.853 69.8038 239.656 68.5596 239.36 67.2197C238.768 64.8271 238.077 62.0515 238.077 62.0515C238.077 62.0515 227.815 55.7349 221.795 65.1142C221.795 65.2099 221.499 66.4541 221.598 67.794Z" fill="#FAB29A"/>
<path opacity="0.5" d="M221.598 67.794C222.585 65.5927 225.644 62.8172 225.644 62.8172C225.644 62.8172 227.223 63.87 229.591 64.4442C231.959 65.0185 239.064 67.9854 239.064 67.9854L239.458 67.2197C238.866 64.8271 238.176 62.0515 238.176 62.0515C238.176 62.0515 227.913 55.7349 221.894 65.1142C221.795 65.2099 221.499 66.4541 221.598 67.794Z" fill="#CC8A79"/>
<path d="M230.775 73.7279C230.874 74.2064 230.084 74.6849 229.196 74.7806C228.209 74.9721 227.42 74.6849 227.321 74.2064C227.223 73.7279 228.012 73.2493 228.9 73.1536C229.887 72.9622 230.676 73.2493 230.775 73.7279Z" fill="#E29386"/>
<path d="M223.473 69.0382C223.374 69.0382 223.276 69.0382 223.078 69.0382C222.782 68.9425 222.684 68.6554 222.782 68.3683C223.078 67.794 224.065 66.7412 225.742 67.2198C226.039 67.3155 226.137 67.6026 226.039 67.8897C225.94 68.1768 225.644 68.2726 225.348 68.1768C224.065 67.794 223.67 68.7511 223.67 68.7511C223.67 68.9425 223.572 69.0382 223.473 69.0382Z" fill="#591D4B"/>
<path d="M232.058 67.5069C231.959 67.5069 231.86 67.4112 231.762 67.3155C231.564 67.124 231.663 66.7412 231.86 66.6455C232.452 66.2627 233.834 65.7841 235.018 67.0283C235.215 67.2197 235.215 67.5069 235.018 67.6983C234.821 67.8897 234.525 67.8897 234.327 67.6983C233.439 66.8369 232.551 67.4112 232.551 67.4112C232.354 67.5069 232.156 67.5069 232.058 67.5069Z" fill="#591D4B"/>
<path d="M225.742 70.8567C225.841 71.5266 225.545 72.1009 225.15 72.1966C224.756 72.1966 224.361 71.718 224.361 71.0481C224.262 70.3781 224.558 69.8039 224.953 69.7082C225.348 69.6125 225.644 70.1867 225.742 70.8567Z" fill="#280600"/>
<path d="M224.855 70.4749C224.855 70.5707 224.756 70.7624 224.657 70.7624C224.559 70.7624 224.46 70.6666 224.46 70.4749C224.46 70.3791 224.559 70.1874 224.657 70.1874C224.756 70.1874 224.855 70.2832 224.855 70.4749Z" fill="white"/>
<path d="M234.13 69.8039C234.229 70.4738 233.933 71.0481 233.538 71.1438C233.143 71.1438 232.748 70.6652 232.748 69.9953C232.65 69.3253 232.946 68.7511 233.341 68.6554C233.735 68.5597 234.031 69.0382 234.13 69.8039Z" fill="#280600"/>
<path d="M233.243 69.3263C233.243 69.4222 233.144 69.6138 233.045 69.6138C232.946 69.6138 232.847 69.518 232.847 69.3263C232.847 69.2305 232.946 69.0388 233.045 69.0388C233.144 69.1346 233.243 69.2305 233.243 69.3263Z" fill="white"/>
<path d="M231.86 76.6948C231.86 76.6948 231.268 78.1304 229.69 78.4175C228.111 78.7047 227.42 77.4605 227.42 77.4605" stroke="#E29386" stroke-width="0.8496" stroke-miterlimit="10" stroke-linecap="round"/>
<path d="M223.177 59.946C222.98 60.0417 223.868 62.4344 228.111 64.2528C232.354 66.167 237.781 67.0284 238.669 68.2726C238.669 68.2726 240.84 65.497 240.84 64.3486C240.84 63.2001 239.755 59.7546 239.755 59.7546C239.755 59.7546 234.525 52.098 223.177 59.946Z" fill="#591D4B"/>
<path d="M237.584 65.3056C237.584 65.3056 239.755 70.9524 238.965 74.8764C238.965 74.8764 240.643 72.6751 240.445 70.091C240.248 67.5069 239.557 64.3485 239.557 64.3485L237.584 65.3056Z" fill="#591D4B"/>
<path d="M221.105 68.5597L222.881 74.9721C222.881 74.9721 222.289 70.7609 222.091 69.8039C221.894 68.8468 221.302 66.9326 221.302 66.9326L221.105 68.5597Z" fill="#591D4B"/>
<path d="M236.301 206.665L214.395 206.761V206.665L214.79 205.708C214.987 205.038 215.579 204.56 216.171 204.368L218.145 203.603L219.526 202.741L220.415 202.167L220.908 201.88L221.007 201.784L221.796 201.306L221.895 201.21L222.585 200.827C222.684 200.732 223.375 200.349 223.473 200.253C223.967 199.966 224.46 199.583 224.954 199.966C225.447 200.253 225.842 200.636 226.236 201.019C227.322 201.784 228.605 202.454 229.887 202.646C231.664 202.837 233.341 202.837 235.117 202.741C235.413 202.741 235.907 202.646 236.104 202.837C236.301 203.124 236.301 203.794 236.301 204.081C236.4 205.038 236.301 205.9 236.301 206.665Z" fill="#17D8E2"/>
<path d="M236.597 207.048V207.91C236.597 208.101 236.4 208.293 236.202 208.293H214.395C214.197 208.293 214 208.101 214 207.91V207.048C214 206.857 214.099 206.665 214.296 206.665H236.103C236.103 206.665 236.103 206.665 236.202 206.665C236.4 206.761 236.597 206.857 236.597 207.048Z" fill="#267AD8"/>
<path d="M223.769 202.072C223.67 202.072 223.473 201.976 223.374 201.88L222.486 200.923C222.289 200.732 222.289 200.445 222.486 200.253C222.684 200.062 222.98 200.062 223.177 200.253L224.065 201.21C224.262 201.402 224.262 201.689 224.065 201.88C224.065 202.072 223.966 202.072 223.769 202.072Z" fill="#267AD8"/>
<path d="M222.289 203.029C222.19 203.029 221.993 202.933 221.894 202.837L221.006 201.88C220.809 201.689 220.809 201.402 221.006 201.21C221.203 201.019 221.499 201.019 221.697 201.21L222.585 202.167C222.782 202.359 222.782 202.646 222.585 202.837C222.486 202.933 222.387 203.029 222.289 203.029Z" fill="#267AD8"/>
<path d="M220.809 203.986C220.71 203.986 220.513 203.89 220.414 203.794L219.526 202.837C219.329 202.646 219.329 202.359 219.526 202.167C219.723 201.976 220.019 201.976 220.217 202.167L221.105 203.124C221.302 203.316 221.302 203.603 221.105 203.794C221.105 203.89 221.006 203.986 220.809 203.986Z" fill="#267AD8"/>
<path d="M245.38 202.837C243.998 202.741 242.814 201.976 241.729 201.21C241.235 200.923 240.841 200.54 240.446 200.157C239.952 199.775 239.459 200.157 238.966 200.444L238.078 201.019L237.288 201.497L236.4 202.072L233.637 203.794L231.664 204.56C230.973 204.847 230.48 205.326 230.282 205.9L229.887 206.857H251.794C251.794 205.996 251.892 205.134 251.892 204.273C251.892 203.986 251.892 203.22 251.695 203.029C251.498 202.741 251.004 202.933 250.708 202.933C248.932 202.933 247.156 203.029 245.38 202.837Z" fill="#17D8E2"/>
<path d="M252.089 207.144V208.005C252.089 208.197 251.892 208.388 251.694 208.388H229.887C229.69 208.388 229.492 208.197 229.492 208.005V207.144C229.492 206.953 229.69 206.761 229.887 206.761H251.694C251.99 206.857 252.089 206.953 252.089 207.144Z" fill="#267AD8"/>
<path d="M239.36 202.167C239.261 202.167 239.064 202.072 238.965 201.976L238.077 201.019C237.88 200.827 237.88 200.54 238.077 200.349C238.274 200.157 238.57 200.157 238.768 200.349L239.656 201.306C239.853 201.497 239.853 201.784 239.656 201.976C239.557 202.167 239.459 202.167 239.36 202.167Z" fill="#267AD8"/>
<path d="M237.781 203.124C237.682 203.124 237.485 203.029 237.386 202.933L236.498 201.976C236.301 201.784 236.301 201.497 236.498 201.306C236.696 201.114 236.992 201.114 237.189 201.306L238.077 202.263C238.274 202.454 238.274 202.741 238.077 202.933C238.077 203.124 237.978 203.124 237.781 203.124Z" fill="#267AD8"/>
<path d="M236.4 204.081C236.301 204.081 236.103 203.986 236.005 203.89L235.117 202.933C234.919 202.741 234.919 202.454 235.117 202.263C235.314 202.071 235.61 202.071 235.807 202.263L236.696 203.22C236.893 203.411 236.893 203.698 236.696 203.89C236.597 204.081 236.498 204.081 236.4 204.081Z" fill="#267AD8"/>
<path opacity="0.7" d="M239.458 190.874C239.458 190.874 245.083 190.682 247.451 184.461C249.819 178.145 249.326 165.703 251.892 162.162C251.596 169.818 250.905 168.574 252.089 176.9C252.582 185.801 252.878 190.012 252.878 190.012L244.392 190.682L239.458 190.874Z" fill="#A0CDE8"/>
</g>
<defs>
<linearGradient id="paint0_linear" x1="96.7405" y1="210.359" x2="96.7405" y2="43.3095" gradientUnits="userSpaceOnUse">
<stop stop-color="#808080" stop-opacity="0.25"/>
<stop offset="0.54" stop-color="#808080" stop-opacity="0.12"/>
<stop offset="1" stop-color="#808080" stop-opacity="0.1"/>
</linearGradient>
<clipPath id="clip0">
<rect width="300" height="213" fill="white"/>
</clipPath>
</defs>
</svg>
